<?xml version="1.0" encoding="utf-8"?>
<!-- Generator: Adobe Illustrator 16.0.0, SVG Export Plug-In . SVG Version: 6.00 Build 0)  -->
<!DOCTYPE svg PUBLIC "-//W3C//DTD SVG 1.1//EN" "http://www.w3.org/Graphics/SVG/1.1/DTD/svg11.dtd">
<svg version="1.1" id="Layer_1" xmlns="http://www.w3.org/2000/svg" xmlns:xlink="http://www.w3.org/1999/xlink" x="0px" y="0px"
	 width="338.953px" height="84.24px" viewBox="0 0 338.953 84.24" enable-background="new 0 0 338.953 84.24" xml:space="preserve">
<g>
	<g>
		<path fill="#010101" d="M99.111,34.132l1.536-1.93c1.314,1.755,3.112,3.246,5.832,3.246c3.99,0,6.49-2.763,6.49-6.711V7.944h2.499
			v20.793c0,6.098-3.991,8.992-8.858,8.992C103.454,37.729,101.042,36.633,99.111,34.132z"/>
		<path d="M106.61,38.987c-3.594,0-6.372-1.337-8.494-4.087l-0.602-0.78l3.162-3.975l0.977,1.303
			c1.402,1.871,2.936,2.743,4.826,2.743c3.228,0,5.232-2.091,5.232-5.454V6.688h5.014v22.05
			C116.726,34.963,112.755,38.987,106.61,38.987z"/>
	</g>
	<g>
		<path fill="#010101" d="M128.452,25.974V7.944h2.543v17.984c0,5.924,3.114,9.52,8.858,9.52c5.746,0,8.858-3.596,8.858-9.52V7.944
			h2.544v18.029c0,7.238-3.859,11.756-11.402,11.756C132.356,37.729,128.452,33.168,128.452,25.974z"/>
		<path d="M139.854,38.987c-7.927,0-12.658-4.866-12.658-13.014V6.688h5.058v19.241c0,5.328,2.699,8.263,7.601,8.263
			c4.902,0,7.602-2.935,7.602-8.263V6.688h5.059v19.286C152.514,34.121,147.78,38.987,139.854,38.987z"/>
	</g>
	<g>
		<path fill="#010101" d="M162.618,33.08l1.624-1.886c1.886,2.147,4.955,4.254,9.165,4.254c5.965,0,7.675-3.334,7.675-5.834
			c0-8.597-17.542-4.124-17.542-14.345c0-4.782,4.298-7.808,9.604-7.808c4.342,0,7.675,1.534,9.91,4.123l-1.665,1.843
			c-2.105-2.545-5.087-3.686-8.376-3.686c-3.903,0-6.841,2.237-6.841,5.396c0,7.503,17.54,3.378,17.54,14.301
			c0,3.773-2.498,8.291-10.393,8.291C168.495,37.729,164.855,35.755,162.618,33.08z"/>
		<path d="M173.319,38.987c-4.772,0-8.915-1.812-11.665-5.103l-0.684-0.817l3.262-3.791l0.954,1.089
			c1.254,1.429,3.99,3.826,8.221,3.826c5.954,0,6.417-3.503,6.417-4.577c0-3.007-2.768-3.932-7.284-5.193
			c-4.569-1.277-10.257-2.866-10.257-9.151c0-5.252,4.567-9.065,10.86-9.065c4.529,0,8.285,1.577,10.862,4.559l0.727,0.841
			l-3.386,3.745l-0.927-1.12c-1.748-2.112-4.31-3.229-7.407-3.229c-3.236,0-5.585,1.74-5.585,4.138c0,2.329,2.519,3.154,6.626,4.309
			c4.863,1.366,10.916,3.066,10.916,9.992C184.97,33.843,181.919,38.987,173.319,38.987z"/>
	</g>
	<g>
		<path fill="#010101" d="M202.75,37.203V10.227h-9.561V7.944h21.663v2.282h-9.56v26.977H202.75z"/>
		<path d="M206.55,38.46h-5.059V11.482h-9.559V6.688h24.177v4.795h-9.56V38.46z"/>
	</g>
	<g>
		<path fill="#010101" d="M223.365,22.597c0-8.992,6.533-15.135,14.822-15.135c4.647,0,8.199,2.062,10.655,5.176l-2.104,1.36
			c-1.843-2.545-5.043-4.256-8.551-4.256c-6.842,0-12.191,5.221-12.191,12.854c0,7.544,5.35,12.852,12.191,12.852
			c3.508,0,6.708-1.711,8.551-4.254l2.149,1.314c-2.633,3.203-6.053,5.221-10.7,5.221C229.898,37.729,223.365,31.589,223.365,22.597
			z"/>
		<path d="M238.188,38.987c-9.317,0-16.079-6.894-16.079-16.391c0-9.499,6.762-16.393,16.079-16.393
			c4.699,0,8.727,1.956,11.642,5.654l0.855,1.086l-4.266,2.757l-0.699-0.966c-1.667-2.304-4.554-3.735-7.532-3.735
			c-6.336,0-10.936,4.876-10.936,11.597c0,6.719,4.6,11.595,10.936,11.595c2.979,0,5.865-1.432,7.532-3.734l0.683-0.943l4.372,2.679
			l-0.916,1.114C246.763,37.076,242.835,38.987,238.188,38.987z"/>
	</g>
	<g>
		<path fill="#010101" d="M258.495,22.597c0-8.555,5.615-15.135,14.209-15.135c8.552,0,14.208,6.58,14.208,15.135
			c0,8.553-5.656,15.133-14.208,15.133C264.11,37.729,258.495,31.149,258.495,22.597z M284.281,22.597
			c0-7.414-4.561-12.854-11.577-12.854c-7.06,0-11.577,5.44-11.577,12.854c0,7.368,4.518,12.852,11.577,12.852
			C279.721,35.448,284.281,29.965,284.281,22.597z"/>
		<path d="M272.704,38.987c-8.962,0-15.465-6.894-15.465-16.391c0-9.499,6.503-16.393,15.465-16.393s15.466,6.894,15.466,16.393
			C288.17,32.094,281.666,38.987,272.704,38.987z M272.704,11c-6.173,0-10.32,4.66-10.32,11.597c0,6.935,4.147,11.595,10.32,11.595
			s10.32-4.66,10.32-11.595C283.024,15.66,278.877,11,272.704,11z"/>
	</g>
	<g>
		<path fill="#010101" d="M298.802,37.203V7.944h2.5v29.259H298.802z"/>
		<rect x="297.544" y="6.688" width="5.015" height="31.772"/>
	</g>
	<g>
		<path fill="#010101" d="M335.202,37.203l-18.419-25.136v25.136h-2.5V7.944h2.544l18.331,24.784V7.944h2.499v29.259H335.202z"/>
		<path d="M338.914,38.46h-4.35l-16.523-22.549V38.46h-5.015V6.688h4.435L333.9,28.913V6.688h5.014V38.46z"/>
	</g>
</g>
<g>
	<path fill="#0DB14B" d="M97.328,77.452V47.504h18.987v2.335H99.887v11.09h16.114v2.335H99.887v11.854h16.429v2.335H97.328z"/>
	<path fill="#0DB14B" d="M146.076,77.452l-10.46-13.515l-10.414,13.515h-3.187l12.03-15.356l-11.356-14.592h3.231l9.695,12.706
		l9.741-12.706h3.231l-11.356,14.547l12.03,15.401H146.076z"/>
	<path fill="#0DB14B" d="M153.616,62.5c0-9.204,6.688-15.49,15.171-15.49c4.758,0,8.396,2.11,10.908,5.298l-2.154,1.392
		c-1.886-2.604-5.163-4.354-8.754-4.354c-7.001,0-12.478,5.343-12.478,13.155c0,7.724,5.477,13.155,12.478,13.155
		c3.591,0,6.868-1.75,8.754-4.355l2.199,1.348c-2.693,3.278-6.195,5.344-10.953,5.344C160.305,77.991,153.616,71.705,153.616,62.5z"
		/>
	<path fill="#0DB14B" d="M208.647,77.452V63.219h-18.988v14.233h-2.558V47.504h2.558v13.38h18.988v-13.38h2.558v29.948H208.647z"/>
	<path fill="#0DB14B" d="M242.581,77.452l-2.962-7.364h-15.847l-2.962,7.364h-2.963l12.255-29.948h3.187l12.255,29.948H242.581z
		 M231.719,50.242l-7.093,17.512h14.14L231.719,50.242z"/>
	<path fill="#0DB14B" d="M273.598,77.452l-18.853-25.729v25.729h-2.559V47.504h2.604l18.763,25.368V47.504h2.56v29.948H273.598z"/>
	<path fill="#0DB14B" d="M284.685,62.5c0-9.249,6.732-15.49,15.172-15.49c4.938,0,8.529,1.976,11.267,5.118l-1.931,1.393
		c-2.109-2.515-5.521-4.176-9.336-4.176c-7.002,0-12.479,5.343-12.479,13.155c0,7.724,5.477,13.2,12.479,13.2
		c3.994,0,7.182-1.975,8.798-3.637v-7.183h-11.312v-2.29h13.87v10.461c-2.648,2.963-6.644,4.984-11.356,4.984
		C291.417,78.036,284.685,71.75,284.685,62.5z"/>
	<path fill="#0DB14B" d="M319.965,77.452V47.504h18.988v2.335h-16.43v11.09h16.115v2.335h-16.115v11.854h16.43v2.335H319.965z"/>
</g>
<g>
	<path fill="#0DB14B" d="M12.589,57.801c5.041,0,8.35-1.489,10.111-4.553l0.023-0.04c1.388-2.26,2.091-6.148,2.091-11.564V3.794
		C10.331,9.239-0.001,23.461-0.001,40.146c0,4.09,0.623,8.03,1.772,11.73C3.577,55.86,7.116,57.801,12.589,57.801z"/>
	<path fill="#010101" d="M42.12,0c-2.603,0-5.149,0.238-7.622,0.689v43.997c0,7.451-1.756,13.173-5.221,17.007
		c-3.51,3.886-8.757,5.854-15.6,5.854c-1.974,0-3.806-0.16-5.497-0.482C15.85,77.48,28.194,84.24,42.12,84.24
		c23.264,0,42.121-18.857,42.121-42.12S65.384,0,42.12,0z"/>
</g>
</svg>
